<?xml version="1.0" encoding="UTF-8"?>
<svg version="1.1" xmlns="http://www.w3.org/2000/svg" width="48" height="48">
<path d="M0 0 C4.69205532 0.63406153 4.69205532 0.63406153 6.27563477 2.51586914 C10.15106087 5.8513803 17.07805473 4.4641603 21.9375 4.4375 C23.22591797 4.45748047 24.51433594 4.47746094 25.84179688 4.49804688 C27.69708008 4.49708008 27.69708008 4.49708008 29.58984375 4.49609375 C31.28935181 4.49887329 31.28935181 4.49887329 33.02319336 4.50170898 C36.62187453 3.89518969 37.60438568 2.64194489 40 0 C42.75 0.25 42.75 0.25 45 1 C44.58682778 5.82034262 42.61980085 7.90992611 39 11 C38.34 11 37.68 11 37 11 C37.495 13.475 37.495 13.475 38 16 C39.423125 15.9690625 39.423125 15.9690625 40.875 15.9375 C44 16 44 16 46 17 C46.042721 18.66611905 46.04063832 20.33382885 46 22 C43.95301586 24.04698414 39.69588759 23.70045693 37 24 C37.36701012 27.30309104 38.13107802 28.12483621 40.625 30.5 C41.40875 31.325 42.1925 32.15 43 33 C42.8125 35.3125 42.8125 35.3125 42 37 C39.33644766 37.39169887 37.60775627 37.40564529 35.33203125 35.88671875 C33.8489112 34.63610683 32.42045648 33.32135486 31 32 C30.13375 32.495 30.13375 32.495 29.25 33 C27 34 27 34 23 34 C23 26.41 23 18.82 23 11 C22.01 11.495 22.01 11.495 21 12 C20.67 19.26 20.34 26.52 20 34 C18.02 33.67 16.04 33.34 14 33 C10.853257 32.67215667 10.853257 32.67215667 8.625 35.0625 C6 37 6 37 3.1875 36.75 C2.465625 36.5025 1.74375 36.255 1 36 C1.1875 33.75 1.1875 33.75 2 31 C3.64295195 29.63755204 5.30824337 28.30135125 7 27 C7 26.01 7 25.02 7 24 C5.700625 23.855625 4.40125 23.71125 3.0625 23.5625 C-0.875 23.125 -0.875 23.125 -2 22 C-2.125 19.5 -2.125 19.5 -2 17 C-1 16 -1 16 2.5625 15.9375 C3.696875 15.958125 4.83125 15.97875 6 16 C5.77136154 12.11314614 4.67815822 10.50467378 1.875 8 C0.234375 6.4921875 0.234375 6.4921875 -1 5 C-0.875 2.125 -0.875 2.125 0 0 Z " fill="#14A148" transform="translate(2,9)"/>
<path d="M0 0 C3.20347802 2.57671058 5.57406022 5.11107332 7 9 C7 9.99 7 10.98 7 12 C-1.58 12 -10.16 12 -19 12 C-17.96178889 5.77073332 -17.60654672 4.76899277 -13 1 C-8.76093163 -1.52052714 -4.62434327 -1.46031893 0 0 Z " fill="#14A148" transform="translate(30,1)"/>
</svg>
